<svg width="631" height="598" xmlns="http://www.w3.org/2000/svg" xmlns:xlink="http://www.w3.org/1999/xlink" overflow="hidden"><defs><clipPath id="clip0"><path d="M164 77 795 77 795 675 164 675Z" fill-rule="evenodd" clip-rule="evenodd"/></clipPath></defs><g clip-path="url(#clip0)" transform="translate(-164 -77)"><rect x="165.5" y="130.5" width="436" height="352" stroke="#2F528F" stroke-miterlimit="8" fill="#4472C4"/><rect x="274.5" y="184.5" width="437" height="352" stroke="#2F528F" stroke-miterlimit="8" fill="#4472C4"/><rect x="181.5" y="146.5" width="436" height="352" stroke="#2F528F" stroke-miterlimit="8" fill="#4472C4"/><rect x="197.5" y="162.5" width="436" height="352" stroke="#2F528F" stroke-miterlimit="8" fill="#4472C4"/><rect x="213.5" y="178.5" width="436" height="352" stroke="#2F528F" stroke-miterlimit="8" fill="#4472C4"/><rect x="229.5" y="194.5" width="436" height="352" stroke="#2F528F" stroke-miterlimit="8" fill="#4472C4"/><rect x="245.5" y="210.5" width="436" height="352" stroke="#2F528F" stroke-miterlimit="8" fill="#4472C4"/><rect x="261.5" y="226.5" width="436" height="352" stroke="#2F528F" stroke-miterlimit="8" fill="#4472C4"/><rect x="277.5" y="242.5" width="436" height="352" stroke="#2F528F" stroke-miterlimit="8" fill="#4472C4"/><rect x="252.5" y="78.5001" width="436" height="352" stroke="#2F528F" stroke-miterlimit="8" fill="#4472C4"/><rect x="293.5" y="258.5" width="436" height="352" stroke="#2F528F" stroke-miterlimit="8" fill="#4472C4"/><rect x="309.5" y="274.5" width="436" height="352" stroke="#2F528F" stroke-miterlimit="8" fill="#4472C4"/><rect x="325.5" y="290.5" width="436" height="352" stroke="#2F528F" stroke-miterlimit="8" fill="#4472C4"/><rect x="341.5" y="306.5" width="436" height="352" stroke="#2F528F" stroke-miterlimit="8" fill="#4472C4"/><rect x="357.5" y="322.5" width="436" height="352" stroke="#2F528F" stroke-miterlimit="8" fill="#4472C4"/></g></svg>